<svg fill="none" height="180" viewBox="0 0 180 180" width="180" xmlns="http://www.w3.org/2000/svg"><path d="m0 0h180v180h-180z" fill="#fff"/><g fill="#7b614b"><path d="m28.4418 123.468v26.94h70.0293v-26.94zm21.5421 21.161h-16.1504v-15.075h16.1504zm16.1684 0h-10.7784v-15.075h10.7784zm21.5404 0h-16.1685v-15.075h16.1685zm5.6143-54.1314h5.1658v29.6004h-5.1658zm-23.4552 17.2324h19.9537v4.311h-19.9537zm0-7.7768h19.9537v4.2308h-19.9537zm0 15.7458h19.9537v4.399h-19.9537zm-9.0582-17.9757h5.3274v22.3747h-5.3274zm-3.6384 22.4457v-4.557h-19.7509v4.486zm-28.7134-11.407h5.3901v11.336h-5.3901z"/><path d="m136.681 67.12-11.461-37.12-9.799 37.12h-10.467l-1.555-2.3536h-73.9646l-12.4344 13.1321h93.031v10.8015h5.39v48.994h-3.554l-8.005 12.716h48l-8.005-12.716h-6.877v-48.9957h5.388v-10.8015h5.392v10.7801h16.166v-21.5569zm-99.9928 5.9987h-8.7432l3.5824-3.5807h8.7365zm15.0832 0h-8.7432l3.5824-3.5807h8.7382zm15.098 0h-8.7431l3.584-3.5807h8.7382zm15.0816 0h-8.7432l3.5841-3.5807h8.7382zm6.5264 0 3.5857-3.5807h8.7699l2.37 3.5807zm37.0476-28.5798 2.725 8.824-6.735 6.3483zm-10.112 38.743v-10.7669h16.183v10.7669zm16.177 6.2131-10.779 9.1538v-9.1538zm-.635 48.197h-10.146v-1.745l10.779-10.15zm.635-19.34-10.779 10.143v-8.166l10.779-10.143zm0-14.92-10.781 10.14v-8.163l10.779-10.1463zm-10.766-36.312 9.044-8.5254 2.629 8.5254z"/></g></svg>